<svg width="282" height="112" viewBox="0 0 282 112" fill="none" xmlns="http://www.w3.org/2000/svg">
<path d="M124.899 0.51882C124.748 5.18616 124.184 9.06307 122.735 15.1984L113.669 54.9461C113.086 57.0727 112.089 63.4903 111.656 66.4262C111.08 70.1651 110.697 72.8752 110.509 74.5565C108.647 63.7538 107.631 59.3499 106.484 55.0778L94.8214 13.9939C92.9592 7.72686 92.0939 3.98169 91.5108 0.51882H65.8915C65.3084 4.24517 64.462 8.38555 62.7315 14.3891L51.2197 55.7365C50.3545 58.5407 49.3575 63.3398 47.1944 74.5565C45.4638 64.0173 44.4669 57.7503 44.0343 55.7365L34.8174 15.1796C33.67 9.57121 32.9552 5.29908 32.8047 0.5H0C1.42956 4.09461 3.46105 10.2299 5.47372 17.0427L28.4972 97.0839C30.6604 104.819 31.3751 107.623 32.0899 111.5H60.7188C61.1514 107.905 62.0167 104.028 63.8789 97.3662L74.5253 58.0137C76.2559 51.7467 77.9864 43.3342 78.8328 37.8764C80.2624 46.6841 81.4286 52.8194 82.8582 58.0137L93.7868 97.2345C95.2164 102.579 96.2321 107.247 96.8152 111.5H125.595C126.027 108.301 127.325 103.219 129.187 96.9522L147.941 21.8042H277.542C277.542 21.8042 280.928 3.24771 281.981 0.61292L124.88 0.5L124.899 0.51882Z" fill="#6FAA34"/>
</svg>
