<svg width="389" height="87" viewBox="0 0 389 87" fill="none" xmlns="http://www.w3.org/2000/svg">
<path d="M68.2116 0.0103425C68.1294 2.57528 67.8212 4.70583 67.0302 8.07749L62.0787 29.9208C61.7603 31.0895 61.2158 34.6163 60.9795 36.2297C60.6645 38.2844 60.4556 39.7738 60.3529 40.6977C59.3359 34.7611 58.7811 32.341 58.1545 29.9932L51.7853 7.41557C50.7683 3.97152 50.2958 1.91336 49.9773 0.0103425H35.9857C35.6673 2.05816 35.205 4.3335 34.2599 7.63276L27.9729 30.3552C27.5004 31.8962 26.9559 34.5336 25.7745 40.6977C24.8294 34.9059 24.285 31.4619 24.0487 30.3552L19.015 8.06714C18.3884 4.98508 17.998 2.63733 17.9158 0H0C0.780735 1.97542 1.8902 5.34707 2.98939 9.09105L15.5633 53.0777C16.7447 57.3284 17.1351 58.8695 17.5254 61H33.1607C33.397 59.0246 33.8695 56.894 34.8865 53.2328L40.701 31.6066C41.6461 28.1626 42.5912 23.5395 43.0534 20.5402C43.8342 25.3805 44.4711 28.7521 45.2518 31.6066L51.2203 53.1604C52.0011 56.0977 52.5558 58.6626 52.8743 61H68.5917C68.828 59.2418 69.5368 56.4493 70.5538 53.0053L80.7958 11.7077L347.5 11.7077C347.5 11.7077 349.349 1.51 349.924 0.0620535L68.2013 0L68.2116 0.0103425Z" fill="#6FAA34"/>
<path d="M117.59 51.5837C115.492 51.8305 113.345 51.9292 109.637 51.9292H97.0502V43.6353H107.588C110.955 43.6353 112.613 43.7341 114.906 43.9809V34.8477C111.979 35.1439 110.808 35.1933 107.588 35.1933H97.0502V27.9361H109.735C113.004 27.9361 114.76 28.0349 117.004 28.2817V19.0498C114.711 19.2966 113.052 19.3954 109.735 19.3954H94.1717C90.3663 19.3954 89.0003 19.346 87 19.2473C87.2927 21.6663 87.3903 23.3942 87.3903 26.4551V53.4103C87.3903 56.8167 87.2927 58.6434 87 60.6181C89.0979 60.5194 90.4639 60.47 94.1717 60.47H109.54C113.735 60.47 115.492 60.5687 117.59 60.8156V51.5837Z" fill="#6FAA34"/>
<path d="M121.323 48.0785C121.664 50.3494 121.908 51.4849 122.396 52.6698C123.421 55.4838 125.226 57.6066 127.665 58.9889C130.3 60.5194 134.398 61.408 138.545 61.408C144.253 61.408 148.546 59.9763 151.376 57.2117C153.62 54.9901 154.791 51.8305 154.791 48.1279C154.791 43.586 153.034 40.2783 149.522 38.0567C147.668 36.8718 145.326 36.0326 141.618 35.2427C135.861 34.0578 135.861 34.0578 134.886 33.6135C133.324 32.873 132.593 31.8362 132.593 30.4539C132.593 28.183 134.788 26.5538 137.764 26.5538C141.472 26.5538 143.228 27.8868 143.814 31.0957L154.157 29.9602C153.522 27.1462 152.937 25.6652 151.717 24.036C149.083 20.3334 144.35 18.408 138.154 18.408C128.543 18.408 122.494 23.1968 122.494 30.7995C122.494 34.7984 124.152 38.1061 127.226 40.2783C129.031 41.5618 130.592 42.1543 135.081 43.1416C140.155 44.3265 141.374 44.6721 142.399 45.1658C143.667 45.7582 144.448 47.0911 144.448 48.6216C144.448 51.3862 142.204 53.0647 138.447 53.0647C135.959 53.0647 133.91 52.2255 132.739 50.7444C132.007 49.757 131.666 48.8684 131.47 47.0911L121.323 48.0785Z" fill="#6FAA34"/>
<path d="M180.632 28.1336H186.145C189.658 28.1336 191.56 28.2323 193.756 28.4792V19.0498C191.512 19.2966 189.56 19.3954 186.145 19.3954H164.776C161.8 19.3954 159.117 19.2473 157.507 19.0498V28.4792C160.971 28.183 161.8 28.1336 164.874 28.1336H170.631V53.0153C170.631 56.1256 170.533 58.1497 170.24 60.47H181.022C180.73 58.1497 180.632 55.9775 180.632 53.0153V28.1336Z" fill="#6FAA34"/>
<path d="M237.442 60.47C237.588 59.2852 238.027 57.4092 238.662 55.0888L246.467 25.5171C247.102 23.0486 247.785 20.7283 248.273 19.3954H237.198C237.149 21.1233 236.954 22.555 236.466 24.8259L233.392 39.5377C233.197 40.3276 232.856 42.6973 232.709 43.7834C232.417 45.8569 232.417 45.8569 232.319 46.7949C231.685 42.7961 231.343 41.1669 230.953 39.5871L227.001 24.3816C226.367 22.0613 226.074 20.679 225.879 19.3954H217.195C217 20.7777 216.707 22.3081 216.122 24.5297L212.219 39.834C211.926 40.8707 211.585 42.648 210.853 46.7949C210.267 42.8948 209.926 40.5745 209.779 39.834L206.657 24.8259C206.267 22.7524 206.023 21.1726 205.974 19.3954H194.85C195.338 20.7283 196.021 22.9993 196.704 25.5171L204.51 55.1382C205.242 58.0016 205.486 59.0383 205.73 60.47H215.439C215.585 59.137 215.878 57.7054 216.512 55.2369L220.122 40.6732C220.708 38.3529 221.293 35.2427 221.586 33.2186C222.074 36.4769 222.464 38.7478 222.952 40.6732L226.66 55.1876C227.148 57.1623 227.489 58.8902 227.684 60.47H237.442Z" fill="#6FAA34"/>
<path d="M251.705 19.3954C251.998 21.5676 252.095 22.9993 252.095 26.7019V53.1635C252.095 56.4711 251.998 58.5446 251.705 60.47H262.438C262.145 58.3965 262.048 56.5699 262.048 53.1635V26.7019C262.048 23.098 262.145 21.4195 262.438 19.3954H251.705Z" fill="#6FAA34"/>
<path d="M282.526 25.5664C280.624 22.7031 279.55 20.7283 279.062 19.3954H268.476C268.768 21.6663 268.866 23.8879 268.866 26.7513V52.7191C268.866 56.3724 268.768 58.5446 268.476 60.47H278.867C278.574 58.3472 278.477 56.1749 278.477 52.7685V41.71C278.477 39.2909 278.379 36.5756 278.135 34.354C279.501 36.9706 280.331 38.4516 281.648 40.4264L290.674 54.2002C292.333 56.7674 293.455 58.594 294.333 60.47H305.017C304.773 58.3965 304.627 56.1256 304.627 53.1141V26.8994C304.627 23.6904 304.725 21.617 305.017 19.3954H294.626C294.918 21.6663 295.016 23.6411 295.016 26.8994V38.1554C295.016 40.9201 295.113 43.191 295.309 45.462C294.138 43.2897 293.211 41.71 291.796 39.5871L282.526 25.5664Z" fill="#6FAA34"/>
<path d="M311.556 53.4103C311.556 56.8167 311.458 58.4459 311.166 60.6181C313.215 60.5194 314.581 60.47 318.337 60.47H328.631C334.437 60.47 339.072 58.7915 342.341 55.5331C346.049 51.7811 348 46.3506 348 39.5871C348 33.0211 346.195 27.8374 342.633 24.2829C339.365 21.0739 334.535 19.3954 328.534 19.3954H318.337C314.288 19.3954 313.068 19.346 311.117 19.2473C311.458 21.5182 311.556 23.1474 311.556 26.5044V53.4103ZM321.216 51.8305V28.0349H327.607C331.12 28.0349 333.461 28.8248 335.169 30.5527C337.072 32.478 337.999 35.5389 337.999 39.7352C337.999 43.8328 336.925 47.1405 334.925 49.214C333.169 50.9912 330.924 51.8305 327.753 51.8305H321.216Z" fill="#6FAA34"/>
<path d="M20.5983 86.5876C20.4913 85.6979 20.4272 84.684 20.4272 83.4632V80.8148H23.8064C27.9555 80.8148 30.3936 78.6215 30.3936 74.9384C30.3936 71.3381 28.0624 69.3724 23.8277 69.3724H19.1439C17.7751 69.3724 17.0052 69.3518 16 69.3104C16.1283 70.2829 16.1711 71.214 16.1711 72.3313V83.5253C16.1711 84.7461 16.1283 85.6772 16 86.5876H20.5983ZM20.4272 77.2972V72.89H23.6139C25.1538 72.89 25.9879 73.6349 25.9879 75.0626C25.9879 76.4903 25.111 77.2972 23.6139 77.2972H20.4272Z" fill="#6FAA34"/>
<path d="M48.1172 86.5876C47.5825 85.491 47.3258 84.9737 47.0906 84.3944C46.1282 82.1597 45.8287 81.4562 45.5079 80.7941C44.8235 79.325 44.3316 78.8491 43.2409 78.518C44.2889 78.187 44.738 77.9593 45.2727 77.4834C46.1068 76.7179 46.5345 75.5592 46.5345 74.0901C46.5345 71.1105 44.5241 69.3724 41.0594 69.3724H35.4987C34.0443 69.3724 33.253 69.3518 32.312 69.3104C32.4403 70.3036 32.4831 71.0691 32.4831 72.352V83.4839C32.4831 85.0151 32.4403 85.6358 32.312 86.5876H36.9102C36.7819 85.6358 36.7391 84.8703 36.7391 83.4632V80.0699H38.9206C39.605 80.0699 40.1397 80.2354 40.5889 80.6285C41.1235 81.0837 41.3802 81.5596 42.0646 83.3598C42.7276 85.0772 42.9842 85.9255 43.1126 86.5876H48.1172ZM36.7391 76.5316V72.8486H40.0969C41.423 72.8486 42.1073 73.4486 42.1073 74.6074C42.1073 75.7868 41.3374 76.5316 40.0756 76.5316H36.7391Z" fill="#6FAA34"/>
<path d="M58.0038 69C52.7425 69 49.3633 72.4968 49.3633 77.9593C49.3633 83.4426 52.7425 86.9808 57.9824 86.9808C63.1795 86.9808 66.6228 83.3598 66.6228 77.8973C66.6228 72.4761 63.265 69 58.0038 69ZM58.0038 83.4012C55.3945 83.4012 53.7905 81.3113 53.7905 77.9387C53.7905 74.6074 55.3945 72.5589 58.0038 72.5589C60.5916 72.5589 62.1743 74.5867 62.1743 77.9387C62.1743 81.332 60.5916 83.4012 58.0038 83.4012Z" fill="#6FAA34"/>
<path d="M73.3563 86.5876C73.2494 85.6979 73.1852 84.684 73.1852 83.4632V80.8148H76.5644C80.7135 80.8148 83.1517 78.6215 83.1517 74.9384C83.1517 71.3381 80.8205 69.3724 76.5858 69.3724H71.902C70.5332 69.3724 69.7633 69.3518 68.7581 69.3104C68.8864 70.2829 68.9292 71.214 68.9292 72.3313V83.5253C68.9292 84.7461 68.8864 85.6772 68.7581 86.5876H73.3563ZM73.1852 77.2972V72.89H76.3719C77.9118 72.89 78.7459 73.6349 78.7459 75.0626C78.7459 76.4903 77.869 77.2972 76.3719 77.2972H73.1852Z" fill="#6FAA34"/>
<path d="M98.4799 82.8632C97.5602 82.9667 96.6192 83.008 94.9937 83.008H89.4758V79.5319H94.0955C95.5712 79.5319 96.2984 79.5733 97.3036 79.6767V75.8488C96.0203 75.973 95.507 75.9937 94.0955 75.9937H89.4758V72.952H95.0365C96.4695 72.952 97.2394 72.9934 98.2232 73.0969V69.2276C97.218 69.3311 96.4908 69.3724 95.0365 69.3724H88.214C86.5458 69.3724 85.9469 69.3518 85.07 69.3104C85.1984 70.3242 85.2411 71.0484 85.2411 72.3313V83.6288C85.2411 85.0565 85.1984 85.8221 85.07 86.6497C85.9897 86.6083 86.5885 86.5876 88.214 86.5876H94.951C96.7903 86.5876 97.5602 86.629 98.4799 86.7325V82.8632Z" fill="#6FAA34"/>
<path d="M116.456 86.5876C115.922 85.491 115.665 84.9737 115.43 84.3944C114.467 82.1597 114.168 81.4562 113.847 80.7941C113.163 79.325 112.671 78.8491 111.58 78.518C112.628 78.187 113.077 77.9593 113.612 77.4834C114.446 76.7179 114.874 75.5592 114.874 74.0901C114.874 71.1105 112.863 69.3724 109.398 69.3724H103.838C102.383 69.3724 101.592 69.3518 100.651 69.3104C100.779 70.3036 100.822 71.0691 100.822 72.352V83.4839C100.822 85.0151 100.779 85.6358 100.651 86.5876H105.249C105.121 85.6358 105.078 84.8703 105.078 83.4632V80.0699H107.26C107.944 80.0699 108.479 80.2354 108.928 80.6285C109.463 81.0837 109.719 81.5596 110.404 83.3598C111.067 85.0772 111.323 85.9255 111.452 86.5876H116.456ZM105.078 76.5316V72.8486H108.436C109.762 72.8486 110.446 73.4486 110.446 74.6074C110.446 75.7868 109.676 76.5316 108.415 76.5316H105.078Z" fill="#6FAA34"/>
<path d="M127.369 73.0348H129.786C131.326 73.0348 132.16 73.0762 133.123 73.1796V69.2276C132.139 69.3311 131.283 69.3724 129.786 69.3724H120.419C119.114 69.3724 117.938 69.3104 117.232 69.2276V73.1796C118.75 73.0555 119.114 73.0348 120.461 73.0348H122.985V83.4632C122.985 84.7668 122.942 85.6151 122.814 86.5876H127.54C127.412 85.6151 127.369 84.7047 127.369 83.4632V73.0348Z" fill="#6FAA34"/>
<path d="M144.553 79.6974L149.45 71.8761C149.728 71.4209 150.541 70.2415 151.161 69.3724H145.75C145.601 69.9725 145.301 70.6139 144.767 71.5657L142.393 75.7454L140.019 71.545C139.484 70.6346 139.249 70.0966 139.013 69.3724H133.602C134.458 70.5519 134.928 71.2347 135.313 71.8761L140.233 79.6974V83.5253C140.233 84.684 140.168 85.6358 140.061 86.5876H144.724C144.596 85.5117 144.553 84.6013 144.553 83.5253V79.6974Z" fill="#6FAA34"/>
<path d="M171.265 86.5876C171.372 85.9255 171.65 85.0151 172.184 83.546L174.259 77.8766C174.537 77.1317 174.751 76.3868 175.221 74.7729C175.2 75.0833 175.2 75.0833 175.136 76.1799C175.093 76.8213 175.029 78.3732 175.029 78.8698V83.3805C175.029 84.8496 174.986 85.6358 174.858 86.5876H179.071C178.943 85.76 178.9 84.953 178.9 83.3805V72.6003C178.9 71.214 178.943 70.3656 179.071 69.3724H173.404C173.275 70.2415 173.104 70.9036 172.612 72.2899L169.425 81.2079L166.217 72.2899C165.725 70.9243 165.554 70.2622 165.405 69.3724H159.758C159.865 70.2622 159.93 71.3588 159.93 72.6003V83.3805C159.93 84.7875 159.887 85.6565 159.758 86.5876H163.972C163.843 85.7186 163.801 84.8082 163.801 83.3805V78.8905C163.801 77.7938 163.715 76.0971 163.587 74.7936C163.694 75.0833 163.694 75.0833 163.929 75.8281C163.993 75.9937 164.635 77.918 164.656 78.0214L166.624 83.5253C167.201 85.0979 167.436 85.8634 167.543 86.5876H171.265Z" fill="#6FAA34"/>
<path d="M198.883 86.5876C198.605 86.0083 198.262 85.1599 197.856 84.0633L193.215 71.6071C192.787 70.5105 192.638 69.9725 192.488 69.3724H186.906C186.799 69.9725 186.606 70.5932 186.221 71.6071L181.602 84.0633C181.088 85.4703 180.896 85.9669 180.575 86.5876H185.58C185.687 85.8221 185.836 85.1806 186.114 84.353L186.692 82.5942H192.787L193.365 84.353C193.579 85.0565 193.707 85.5945 193.878 86.5876H198.883ZM191.739 79.1181H187.718L189.707 72.9107L191.739 79.1181Z" fill="#6FAA34"/>
<path d="M200.361 69.3724C200.489 70.2829 200.532 70.8829 200.532 72.4348V83.5253C200.532 84.9116 200.489 85.7807 200.361 86.5876H205.066C204.938 85.7186 204.895 84.953 204.895 83.5253V72.4348C204.895 70.9243 204.938 70.2208 205.066 69.3724H200.361Z" fill="#6FAA34"/>
<path d="M213.872 71.9589C213.038 70.7588 212.568 69.9311 212.354 69.3724H207.713C207.841 70.3242 207.884 71.2554 207.884 72.4555V83.3391C207.884 84.8703 207.841 85.7807 207.713 86.5876H212.268C212.14 85.6979 212.097 84.7875 212.097 83.3598V78.7249C212.097 77.7111 212.054 76.573 211.947 75.6419C212.546 76.7386 212.91 77.3593 213.487 78.187L217.444 83.9598C218.171 85.0358 218.663 85.8014 219.048 86.5876H223.732C223.625 85.7186 223.561 84.7668 223.561 83.5046V72.5175C223.561 71.1726 223.603 70.3036 223.732 69.3724H219.176C219.305 70.3242 219.347 71.1519 219.347 72.5175V77.2352C219.347 78.3939 219.39 79.3457 219.476 80.2975C218.962 79.3871 218.556 78.7249 217.936 77.8352L213.872 71.9589Z" fill="#6FAA34"/>
<path d="M235.538 73.0348H237.955C239.495 73.0348 240.329 73.0762 241.291 73.1796V69.2276C240.307 69.3311 239.452 69.3724 237.955 69.3724H228.587C227.283 69.3724 226.106 69.3104 225.4 69.2276V73.1796C226.919 73.0555 227.283 73.0348 228.63 73.0348H231.154V83.4632C231.154 84.7668 231.111 85.6151 230.983 86.5876H235.709C235.581 85.6151 235.538 84.7047 235.538 83.4632V73.0348Z" fill="#6FAA34"/>
<path d="M256.357 82.8632C255.438 82.9667 254.497 83.008 252.871 83.008H247.353V79.5319H251.973C253.449 79.5319 254.176 79.5733 255.181 79.6767V75.8488C253.898 75.973 253.384 75.9937 251.973 75.9937H247.353V72.952H252.914C254.347 72.952 255.117 72.9934 256.101 73.0969V69.2276C255.095 69.3311 254.368 69.3724 252.914 69.3724H246.091C244.423 69.3724 243.824 69.3518 242.947 69.3104C243.076 70.3242 243.118 71.0484 243.118 72.3313V83.6288C243.118 85.0565 243.076 85.8221 242.947 86.6497C243.867 86.6083 244.466 86.5876 246.091 86.5876H252.828C254.668 86.5876 255.438 86.629 256.357 86.7325V82.8632Z" fill="#6FAA34"/>
<path d="M264.688 71.9589C263.854 70.7588 263.383 69.9311 263.169 69.3724H258.528C258.657 70.3242 258.699 71.2554 258.699 72.4555V83.3391C258.699 84.8703 258.657 85.7807 258.528 86.5876H263.084C262.956 85.6979 262.913 84.7875 262.913 83.3598V78.7249C262.913 77.7111 262.87 76.573 262.763 75.6419C263.362 76.7386 263.725 77.3593 264.303 78.187L268.26 83.9598C268.987 85.0358 269.479 85.8014 269.864 86.5876H274.547C274.441 85.7186 274.376 84.7668 274.376 83.5046V72.5175C274.376 71.1726 274.419 70.3036 274.547 69.3724H269.992C270.12 70.3242 270.163 71.1519 270.163 72.5175V77.2352C270.163 78.3939 270.206 79.3457 270.291 80.2975C269.778 79.3871 269.372 78.7249 268.751 77.8352L264.688 71.9589Z" fill="#6FAA34"/>
<path d="M294.353 86.5876C294.075 86.0083 293.732 85.1599 293.326 84.0633L288.685 71.6071C288.257 70.5105 288.107 69.9725 287.958 69.3724H282.376C282.269 69.9725 282.076 70.5932 281.691 71.6071L277.072 84.0633C276.558 85.4703 276.366 85.9669 276.045 86.5876H281.05C281.157 85.8221 281.306 85.1806 281.584 84.353L282.162 82.5942H288.257L288.835 84.353C289.049 85.0565 289.177 85.5945 289.348 86.5876H294.353ZM287.209 79.1181H283.188L285.177 72.9107L287.209 79.1181Z" fill="#6FAA34"/>
<path d="M301.99 71.9589C301.156 70.7588 300.686 69.9311 300.472 69.3724H295.831C295.959 70.3242 296.002 71.2554 296.002 72.4555V83.3391C296.002 84.8703 295.959 85.7807 295.831 86.5876H300.386C300.258 85.6979 300.215 84.7875 300.215 83.3598V78.7249C300.215 77.7111 300.172 76.573 300.065 75.6419C300.664 76.7386 301.028 77.3593 301.605 78.187L305.562 83.9598C306.289 85.0358 306.781 85.8014 307.166 86.5876H311.85C311.743 85.7186 311.679 84.7668 311.679 83.5046V72.5175C311.679 71.1726 311.722 70.3036 311.85 69.3724H307.294C307.423 70.3242 307.465 71.1519 307.465 72.5175V77.2352C307.465 78.3939 307.508 79.3457 307.594 80.2975C307.08 79.3871 306.674 78.7249 306.054 77.8352L301.99 71.9589Z" fill="#6FAA34"/>
<path d="M330.35 74.5453C330.072 73.3245 329.709 72.5589 329.024 71.7106C327.634 69.9104 325.474 69 322.715 69C320.213 69 318.053 69.7656 316.577 71.1519C314.887 72.7658 313.989 75.1453 313.989 77.9593C313.989 80.732 314.887 83.1529 316.47 84.7047C317.989 86.1945 320.191 86.9808 322.801 86.9808C325.388 86.9808 327.463 86.1945 328.789 84.7254C329.687 83.7115 330.158 82.6977 330.564 80.9389L326.116 80.2975C325.987 81.1665 325.838 81.5803 325.474 82.0769C324.854 82.9046 323.849 83.3805 322.672 83.3805C320.02 83.3805 318.438 81.332 318.438 77.9593C318.438 74.5453 319.956 72.5589 322.565 72.5589C324.405 72.5589 325.538 73.49 325.945 75.3729L330.35 74.5453Z" fill="#6FAA34"/>
<path d="M346 82.8632C345.08 82.9667 344.139 83.008 342.514 83.008H336.996V79.5319H341.616C343.091 79.5319 343.818 79.5733 344.824 79.6767V75.8488C343.54 75.973 343.027 75.9937 341.616 75.9937H336.996V72.952H342.557C343.99 72.952 344.76 72.9934 345.743 73.0969V69.2276C344.738 69.3311 344.011 69.3724 342.557 69.3724H335.734C334.066 69.3724 333.467 69.3518 332.59 69.3104C332.718 70.3242 332.761 71.0484 332.761 72.3313V83.6288C332.761 85.0565 332.718 85.8221 332.59 86.6497C333.51 86.6083 334.109 86.5876 335.734 86.5876H342.471C344.31 86.5876 345.08 86.629 346 86.7325V82.8632Z" fill="#6FAA34"/>
</svg>
